<?xml version="1.0" encoding="UTF-8"?>
<!DOCTYPE svg PUBLIC "-//W3C//DTD SVG 1.1//EN" "http://www.w3.org/Graphics/SVG/1.1/DTD/svg11.dtd">
<!-- Creator: CorelDRAW -->
<svg xmlns="http://www.w3.org/2000/svg" xml:space="preserve" width="64.2749mm" height="21.0938mm" version="1.1" style="shape-rendering:geometricPrecision; text-rendering:geometricPrecision; image-rendering:optimizeQuality; fill-rule:evenodd; clip-rule:evenodd"
viewBox="0 0 7245.95 2377.98"
 xmlns:xlink="http://www.w3.org/1999/xlink"
 xmlns:xodm="http://www.corel.com/coreldraw/odm/2003">
 <defs>
  <style type="text/css">
   <![CDATA[
    .fil1 {fill:#461B03;fill-rule:nonzero}
    .fil0 {fill:white;fill-rule:nonzero}
   ]]>
  </style>
 </defs>
 <g id="Layer_x0020_1">
  <metadata id="CorelCorpID_0Corel-Layer"/>
  <g id="_2390827615152">
   <path class="fil0" d="M7245.95 1232.34c-0.05,-111.87 -35.23,-208.12 -102.04,-284.22l59.62 -0.05 -0.02 -546.61 -194.39 -0.08c7.35,-23.56 11.23,-48.86 11.12,-75.6 -0.7,-117.02 -77.17,-213.68 -191.37,-231.23 -20.29,-3.1 -46.05,-5.01 -62.85,-5.37l-420.03 0.79 -99.24 227.07c-7.28,-14.24 -15.22,-28.5 -23.92,-42.62 -112.25,-181.6 -341,-273.1 -615.79,-273.07 -184.38,-0.02 -341.93,41.64 -477.2,114.22 -101.46,-71.19 -239.11,-115.54 -429.57,-115.55 -137.72,-0.03 -265.97,26.09 -377.21,81.17l0.01 -49.38 -905.39 0.07 -0.02 397.42c-68.6,-26.12 -146.14,-39.68 -229.95,-39.68 -112.25,0.01 -218.51,28.43 -305.18,80.66l0 -0.1c-12.72,-61.34 -36.57,-129.63 -77.4,-195.77 -112.15,-181.58 -340.92,-273.01 -615.79,-273.01 -184.39,0 -341.85,41.67 -477.06,114.26 -101.54,-71.2 -239.18,-115.54 -429.64,-115.56 -137.79,-0.06 -266,26.19 -377.24,81.34l0.02 -49.52 -905.36 0.12 0.05 601.61c0,0 16.63,-0.19 52.39,0.02 65.3,0.41 99.32,42 99.15,91.24 -0.77,233.48 -2.72,917.38 -0.74,968.52 2.86,66.72 -29.24,104 -97.14,105.33 -30.78,0.64 -53.76,0.03 -53.76,0.03l0 579.21 3020.71 -0.02 0.07 -391.34c49.04,8.83 108.34,14.86 174.09,13.6 92.82,-1.82 158.56,-21.58 222.73,-46.69l-0.06 424.3 3020.79 0.17 0.05 -579.55c-100.49,5.86 -126.6,-36.64 -126.59,-107.04 0.03,-4.96 0,-18.7 0.08,-39.58l257.17 0.03 -0.05 -24.93c52.16,23.22 139.28,36.3 223.74,32.31 128.9,-6.08 230.44,-44.15 312.55,-114.98 90.66,-78.19 140.59,-188.94 140.66,-311.91z"/>
   <path class="fil1" d="M7115.64 1231.71c0.27,170.21 -132.5,314.65 -371.04,315 -99.48,0.16 -183.68,-32.72 -248.12,-73.03l-0.06 50.47 -160.09 0.24 -0.26 -339.22 150.43 -0.21c18.15,106.5 119.14,166.82 240.45,169.75 85.85,2.07 129.87,-62.35 129.82,-101.3 -0.07,-49.3 -29.65,-81.79 -75.01,-99.39 -56.98,-22.14 -141.26,-39.05 -216.51,-67.61 -146.59,-55.57 -219.93,-133.18 -220.16,-275.6 -0.25,-172.94 144.55,-293.23 341.59,-292.59 80.81,0.26 163.02,22.08 216.57,58.46l-0.32 -47.8 169.24 -0.26 0.42 291.03 -159.18 0.24c-22.52,-70.5 -109.41,-128.58 -210.62,-128.44 -64.1,0.09 -97.76,34.27 -97.68,85.46 0.09,70.95 73.99,91.35 256.76,142.01 185.3,51.33 253.56,183.65 253.75,312.77zm-3794.44 -396.16c0,-84.38 -76.7,-119.09 -132.11,-119.07 -73.27,0 -128.16,39.72 -128.12,121.46 0.01,68.02 128.18,158.68 128.18,158.68 0,0 132.09,-58.63 132.06,-161.07zm-342.82 626.42c0.03,96.6 85.23,173.47 204.68,173.45 119.48,-0.02 191.77,-64.13 191.77,-64.13l-294.1 -278.5c0,0 -102.36,53.93 -102.35,169.18zm595.35 -621.58c0.05,201.36 -222.77,304.57 -222.77,304.57l233.31 226.97c60.84,-60.86 73.68,-172.66 73.68,-172.66l283.42 -0.05 0.02 199.57 -99.5 0c0,0 -26.67,71.89 -90.02,135.24 2.74,2.72 73.72,66.91 73.72,66.91l115.86 -0.02 0.02 200.18 -319.14 0.08 -71.91 -68.88c0,0 -139.06,134.19 -414.91,134.23 -263.37,0.05 -447.12,-168.54 -447.15,-390.81 -0.05,-229.98 232.6,-336.84 232.6,-336.84 -53.42,-53.42 -131.26,-125.34 -131.28,-269.5 -0.05,-238.68 198.25,-349.17 395.97,-349.22 218.41,-0.02 388.02,112.33 388.06,320.23zm-687.17 1109.25l0 295.28 -680.46 0 0 -1512.01c0,-114.11 -92.28,-162.65 -206.44,-162.65 -114.15,0 -206.18,46.04 -206.18,162.65l0.15 1046.71c0,92.76 43.49,150.86 127.48,150.86l0 314.44 -677.25 0.03 -0.02 -1512.04c0,-113.77 -92.28,-162.65 -206.46,-162.65 -118.13,0 -206.22,51.17 -206.22,162.65l0.02 1046.71c0,92.78 43.52,150.86 127.49,150.88l0 314.45 -828.41 0 -0.03 -314.45c99.51,0 150.89,-58.07 150.89,-150.84l0.95 -1134.53c0,-82.28 -52.35,-142.97 -151.84,-142.97l-0.02 -338.43 667.02 -0.03 0 103.81c155.08,-93.57 311.28,-134.4 495.89,-134.4 178.56,0 324.41,51.76 399.26,144.47 148.31,-92.64 314.63,-144.47 493.53,-144.49 351.09,0 534.25,157.27 567.68,376l0 0 0.03 0.19c0.33,2.16 2.63,25.71 6.41,65.23l0 0.02c-65.31,80.5 -100.4,182.19 -100.37,294.86 0.02,167.94 79.71,246.02 80.81,247.24 -2.03,1.09 -10.38,6.05 -12.86,7.87 -3.21,2.36 -169.35,124.12 -169.29,351.23 0.02,146.14 59.92,279.69 168.6,376.05 46.28,41.04 100.28,73.82 159.64,97.86zm3417.58 295.27l-680.52 -0.06c0,0 0.07,-1435.99 0.1,-1511.94 0,-114.13 -92.26,-162.72 -206.37,-162.72 -114.22,0 -206.18,46.03 -206.2,162.67l0.05 1046.69c-0.02,92.8 43.48,150.86 127.51,150.88l-0.07 314.47 -677.25 -0.08 0.12 -1512.03c-0.08,-113.7 -92.36,-162.65 -206.48,-162.65 -118.17,0.02 -206.24,51.16 -206.28,162.66l-0.02 1046.66c0.05,92.81 43.56,150.89 127.51,150.89l0 314.48 -828.47 -0.07 0.02 -313.64 523.76 -0.01 -0.17 -862.01 -454.46 0.09c0,0 86.88,-80.81 86.84,-228.85 0,-135.57 -55.37,-254.29 -155.92,-335.46l0 -0.33 0.03 -341.01 667.03 0.02 -0.02 103.76c155.05,-93.54 311.26,-134.39 495.93,-134.29 178.53,-0.06 324.36,51.73 399.28,144.42 148.23,-92.57 314.55,-144.45 493.49,-144.42 390.58,0.07 573.4,194.58 573.42,451.92l-0.36 1182.76c-1.34,91.96 30.62,161.72 127.4,162.84l0.09 314.32zm145.73 -1753.49l-147.44 -0.41 121.52 -283.05 190.84 0.29 -164.91 283.16zm330.54 -66.33l-0.05 -0.26c-50.37,0.6 -91.04,-38.65 -91.28,-96.96 -0.24,-58.32 40.14,-97.38 90.45,-97.65 48.99,-0.28 90.73,38.43 90.94,96.82 0.23,58.51 -41.09,97.93 -90.06,98.06zm126.72 -98.13c-0.37,-80.15 -60.65,-126.6 -127.74,-126.26 -67.44,0.34 -127.19,47.2 -126.88,127.34 0.39,80.16 60.66,126.53 127.93,126.3 67.19,-0.36 127.01,-47.22 126.69,-127.38zm-122.47 -11.97l-25.8 0.17 -0.27 -32.88 20.4 -0.07c11.13,-0.06 26.23,0.97 26.35,14.97 0.1,15.1 -7.7,17.8 -20.68,17.81zm19.07 20.71c18.3,-1.39 32.9,-10.45 32.74,-35.66 -0.2,-31.2 -20.95,-41.1 -56.18,-41l-50.91 0.29 0.53 136.62 29.18 -0.23 -0.29 -57.4 13.83 -0.08 31.76 57.11 34.53 -0.05 -35.18 -59.61z"/>
  </g>
 </g>
</svg>
